<svg width="16" height="18" viewBox="0 0 16 18" fill="none" xmlns="http://www.w3.org/2000/svg">
<path fill-rule="evenodd" clip-rule="evenodd" d="M5 18C4.44772 18 4 17.5523 4 17C4 16.4477 4.44772 16 5 16C5.55228 16 6 16.4477 6 17C6 17.5523 5.55228 18 5 18ZM12 18C11.4477 18 11 17.5523 11 17C11 16.4477 11.4477 16 12 16C12.5523 16 13 16.4477 13 17C13 17.5523 12.5523 18 12 18ZM16 4.995V9L14 11H4V13H14V15H3L2 14V2H0V0H4V2.00307L16 4.995ZM4 4.06429V9H13L14 8V6.55757L4 4.06429Z" fill="#C4AE28"/>
</svg>
