<svg width="16" height="20" viewBox="0 0 16 20" fill="none" xmlns="http://www.w3.org/2000/svg">
<path fill-rule="evenodd" clip-rule="evenodd" d="M3.59582 3.20221L15.7647 5.87143V9.31696C15.7647 9.95996 15.5091 10.5765 15.0542 11.0306C14.5993 11.4846 13.9827 11.7388 13.3403 11.737H4.06026C3.90282 11.7367 3.74579 11.7211 3.59137 11.6903V12.8982C3.59137 13.1574 3.8013 13.3675 4.06026 13.3675H13.8092C14.3473 13.3675 14.7836 13.8042 14.7836 14.3429C14.7836 14.8816 14.3473 15.3183 13.8092 15.3183H4.06026C2.7293 15.3134 1.65259 14.2326 1.65137 12.9004V2.31915L0.595818 1.87428C0.099989 1.66483 -0.132325 1.0927 0.0769291 0.596391C0.286184 0.100083 0.857767 -0.132445 1.3536 0.0769966L2.72471 0.655335C3.25648 0.879777 3.60227 1.40115 3.60248 1.97882L3.59582 3.20221ZM10.7941 17.1905C11.0029 16.686 11.4948 16.357 12.0403 16.357H12.0426C12.7867 16.3582 13.3892 16.9624 13.3892 17.7072C13.3892 18.2533 13.0606 18.7456 12.5565 18.9546C12.0525 19.1636 11.4723 19.0481 11.0865 18.6619C10.7007 18.2758 10.5853 17.695 10.7941 17.1905ZM5.35804 19.0574C6.10301 19.0574 6.70693 18.4529 6.70693 17.7072C6.70571 16.9621 6.10251 16.3583 5.35804 16.3571C4.61307 16.3571 4.00916 16.9615 4.00916 17.7072C4.00916 18.4529 4.61307 19.0574 5.35804 19.0574ZM3.59583 9.31693V5.2041L13.8092 7.44402V9.31693C13.8092 9.57614 13.5992 9.78627 13.3403 9.78627H4.06471C3.80575 9.78627 3.59583 9.57614 3.59583 9.31693Z" fill="#3B3B3B"/>
</svg>
