<?xml version="1.0"?>
<!--Icons from directory ""-->
<svg xmlns="http://www.w3.org/2000/svg" width="18" height="60" viewBox="0 0 18 60"><svg width="15" height="15" fill="none" id="row-act" y="0"><path fill-rule="evenodd" clip-rule="evenodd" d="M0 0h5v5H0V0zm10 0h5v5h-5V0zM0 10h5v5H0v-5zm10 0h5v5h-5v-5z" fill="#000"/></svg><svg width="15" height="15" fill="none" id="row" y="15"><path fill-rule="evenodd" clip-rule="evenodd" d="M0 0h5v5H0V0zm10 0h5v5h-5V0zM0 10h5v5H0v-5zm10 0h5v5h-5v-5z" fill="#B6C2D4"/></svg><svg width="18" height="15" fill="none" id="table-act" y="30"><path fill-rule="evenodd" clip-rule="evenodd" d="M6 0h12v3H6V0zm0 6h12v3H6V6zm0 6h12v3H6v-3zM0 0h3v3H0V0zm0 6h3v3H0V6zm0 6h3v3H0v-3z" fill="#000"/></svg><svg width="18" height="15" fill="none" id="table" y="45"><path fill-rule="evenodd" clip-rule="evenodd" d="M6 0h12v3H6V0zm0 6h12v3H6V6zm0 6h12v3H6v-3zM0 0h3v3H0V0zm0 6h3v3H0V6zm0 6h3v3H0v-3z" fill="#B6C2D4"/></svg></svg>
