<?xml version="1.0"?>
<!--Icons from directory ""-->
<svg xmlns="http://www.w3.org/2000/svg" width="16" height="40" viewBox="0 0 16 40"><svg width="16" height="20" fill="none" id="in-cart-1" y="0"><path fill-rule="evenodd" clip-rule="evenodd" d="M3.596 3.202l12.169 2.67v3.445a2.421 2.421 0 0 1-2.425 2.42H4.06a2.42 2.42 0 0 1-.469-.047v1.208c0 .26.21.47.47.47h9.748a.975.975 0 0 1 0 1.95H4.06A2.419 2.419 0 0 1 1.651 12.9V2.32L.596 1.873A.976.976 0 0 1 1.354.077l1.37.578c.532.225.878.746.878 1.324l-.006 1.223zm7.198 13.988c.209-.504.7-.833 1.246-.833h.003a1.35 1.35 0 1 1-1.249.834zm-5.436 1.867a1.35 1.35 0 1 0-.001-2.699 1.35 1.35 0 0 0 .001 2.7zm-1.762-9.74V5.204l10.213 2.24v1.873c0 .26-.21.47-.469.47H4.065a.47.47 0 0 1-.47-.47z" fill="#C4AE28"/></svg><svg width="16" height="20" fill="none" id="in-cart-2" y="20"><path fill-rule="evenodd" clip-rule="evenodd" d="M3.596 3.202l12.169 2.67v3.445a2.421 2.421 0 0 1-2.425 2.42H4.06a2.42 2.42 0 0 1-.469-.047v1.208c0 .26.21.47.47.47h9.748a.975.975 0 0 1 0 1.95H4.06A2.419 2.419 0 0 1 1.651 12.9V2.32L.596 1.873A.976.976 0 0 1 1.354.077l1.37.578c.532.225.878.746.878 1.324l-.006 1.223zm7.198 13.988c.209-.504.7-.833 1.246-.833h.003a1.35 1.35 0 1 1-1.249.834zm-5.436 1.867a1.35 1.35 0 1 0-.001-2.699 1.35 1.35 0 0 0 .001 2.7zm-1.762-9.74V5.204l10.213 2.24v1.873c0 .26-.21.47-.469.47H4.065a.47.47 0 0 1-.47-.47z" fill="#3B3B3B"/></svg></svg>
