<svg width="34" height="42" viewBox="0 0 34 42" fill="none" xmlns="http://www.w3.org/2000/svg">
<path d="M0 0H26L34 8V42H0V0Z" fill="#FFE544"/>
<path d="M8.19727 21.4414H10.1133C10.5938 21.4336 10.9551 21.2852 11.1973 20.9961C11.4277 20.7148 11.543 20.4023 11.543 20.0586C11.543 19.7734 11.4961 19.5332 11.4023 19.3379C11.3047 19.1621 11.168 19.0234 10.9922 18.9219C10.7266 18.7539 10.418 18.6738 10.0664 18.6816H8.19727V21.4414ZM6.90234 17.457H9.99609C10.332 17.457 10.6562 17.4883 10.9688 17.5508C11.2812 17.6328 11.5977 17.8008 11.918 18.0547C12.1875 18.2461 12.4062 18.5195 12.5742 18.875C12.75 19.2188 12.8379 19.625 12.8379 20.0938C12.8379 20.7266 12.6152 21.3027 12.1699 21.8223C11.7129 22.3691 11.0449 22.6504 10.166 22.666H8.19727V26H6.90234V17.457Z" fill="#3B3B3B"/>
<path d="M14.0156 17.457H17.0039C18.1602 17.4648 19.0273 17.9453 19.6055 18.8984C19.8125 19.2188 19.9434 19.5547 19.998 19.9062C20.041 20.2578 20.0625 20.8652 20.0625 21.7285C20.0625 22.6465 20.0293 23.2871 19.9629 23.6504C19.9316 23.834 19.8848 23.998 19.8223 24.1426C19.7559 24.2832 19.6758 24.4297 19.582 24.582C19.332 24.9844 18.9844 25.3164 18.5391 25.5781C18.0977 25.8594 17.5566 26 16.916 26H14.0156V17.457ZM15.3105 24.7754H16.8574C17.584 24.7754 18.1113 24.5273 18.4395 24.0312C18.584 23.8477 18.6758 23.6152 18.7148 23.334C18.75 23.0566 18.7676 22.5371 18.7676 21.7754C18.7676 21.0332 18.75 20.502 18.7148 20.1816C18.668 19.8613 18.5566 19.6016 18.3809 19.4023C18.0215 18.9062 17.5137 18.666 16.8574 18.6816H15.3105V24.7754Z" fill="#3B3B3B"/>
<path d="M21.5742 17.457H27.0293V18.6816H22.8691V21.2012H26.4199V22.3496H22.8691V26H21.5742V17.457Z" fill="#3B3B3B"/>
<path d="M34 8L26 0V8H34Z" fill="#C4AE28"/>
</svg>
