<svg width="17" height="17" viewBox="0 0 17 17" fill="none" xmlns="http://www.w3.org/2000/svg">
<path fill-rule="evenodd" clip-rule="evenodd" d="M5.74831 4.18062L3.46185 6.46708C4.94001 9.55588 7.44412 12.06 10.5329 13.5381L12.8194 11.2517C14.1212 11.7356 15.5297 12 17 12V17C7.61116 17 0 9.38884 0 0H5C5 1.47029 5.26442 2.87882 5.74831 4.18062ZM14.9811 8C14.7383 4.8088 12.1912 2.2617 9 2.01894V0.0144618C13.2962 0.263674 16.7363 3.70375 16.9855 8H14.9811ZM11.9646 8C11.7453 6.46715 10.5328 5.2547 9 5.03544V4.02746C11.0858 4.25804 12.742 5.91419 12.9725 8H11.9646Z" fill="#C4AE28"/>
</svg>
