<svg width="62" height="50" viewBox="0 0 62 50" fill="none" xmlns="http://www.w3.org/2000/svg">
<path fill-rule="evenodd" clip-rule="evenodd" d="M14.9311 13C12.948 10.7261 12.3807 7.43737 13.7539 4.54827C15.6272 0.606942 20.4024 -1.09824 24.4196 0.739625C25.9809 1.45387 28.2126 3.45901 31.1147 6.75503C34.0169 3.45901 36.2486 1.45387 37.8098 0.739625C41.8271 -1.09824 46.6023 0.606942 48.4756 4.54827C49.8488 7.43737 49.2815 10.7261 47.2984 13H14.9311ZM27.573 11C28.3489 10.0285 29.0899 9.12412 29.7961 8.28675C26.9942 5.08158 24.8907 3.15449 23.5876 2.55833C20.5595 1.17302 16.9619 2.4577 15.5602 5.40681C14.688 7.24205 14.8561 9.34198 15.9231 11H27.573ZM30.1449 11C34.1053 6.15597 37.0051 3.30717 38.6419 2.55833C41.6699 1.17302 45.2676 2.4577 46.6693 5.40681C47.5415 7.24205 47.3734 9.34198 46.3064 11H30.1449Z" fill="#FF541D"/>
<rect x="4" y="23" width="54" height="27" fill="#68A5FF"/>
<rect x="4" y="23" width="54" height="2" fill="#3373D3"/>
<rect y="12" width="62" height="11" fill="#68A5FF"/>
<path fill-rule="evenodd" clip-rule="evenodd" d="M28 24H38V44L33 40L28 44V24Z" fill="#3373D3"/>
<path fill-rule="evenodd" clip-rule="evenodd" d="M26 12H36V38L31 34L26 38V12Z" fill="#FF541D"/>
<path fill-rule="evenodd" clip-rule="evenodd" d="M27.0956 12H30.5501L26 16.8025V13.1563L27.0956 12ZM34.5053 12H36V14.0685L26 24.6232V20.977L34.5053 12ZM36 18.0196V21.6658L26 32.2204V28.5742L36 18.0196ZM36 25.8403V29.4864L31.4116 34.3293L31 34L26 38V36.3949L36 25.8403ZM36 33.3258V36.972L35.4459 37.5568L33.4809 35.9847L36 33.3258Z" fill="white"/>
</svg>
