<svg width="15" height="15" viewBox="0 0 15 15" fill="none" xmlns="http://www.w3.org/2000/svg">
<path fill-rule="evenodd" clip-rule="evenodd" d="M12.6064 11.3135L14.7782 13.4853L13.364 14.8995L11.1922 12.7277C10.0236 13.6029 8.57234 14.1213 7 14.1213C3.13401 14.1213 0 10.9873 0 7.12134C0 3.25534 3.13401 0.121338 7 0.121338C10.866 0.121338 14 3.25534 14 7.12134C14 8.69367 13.4816 10.1449 12.6064 11.3135ZM7 12.1213C9.76142 12.1213 12 9.88276 12 7.12134C12 4.35991 9.76142 2.12134 7 2.12134C4.23858 2.12134 2 4.35991 2 7.12134C2 9.88276 4.23858 12.1213 7 12.1213Z" fill="#3B3B3B"/>
</svg>
