<svg width="15" height="16" viewBox="0 0 15 16" fill="none" xmlns="http://www.w3.org/2000/svg">
<path fill-rule="evenodd" clip-rule="evenodd" d="M7.77733 0.0287907C11.3081 0.0455572 12.8934 1.20963 13.2868 1.5737C14.5878 2.71622 15.3105 5.25035 14.8247 9.25274C14.3974 12.7891 11.957 13.4165 11.1384 13.6269C11.0582 13.6475 10.9936 13.6641 10.9479 13.6791C10.7276 13.7509 8.77733 14.2444 6.24415 14.0288C5.96453 14.3569 5.5925 14.7881 5.32472 15.0803C5.24382 15.1684 5.16807 15.2554 5.09568 15.3385C4.72919 15.7594 4.44883 16.0814 4.02141 15.9474C3.59723 15.8156 3.62093 15.1641 3.62093 15.1641L3.6233 13.5569H3.62093C-0.0852297 12.503 -0.0307276 8.62041 0.0119264 6.54616C0.0522108 4.47191 0.450315 2.80005 1.58065 1.65753C3.61145 -0.225102 7.77733 0.0287907 7.77733 0.0287907ZM10.718 12.5074C11.4138 12.3442 13.3569 11.8884 13.7157 8.96531C14.1257 5.6216 13.5641 3.33897 12.4645 2.38328C12.1328 2.07909 10.7015 1.1713 7.71334 1.15693C7.71334 1.15693 4.17543 0.922203 2.45742 2.49346C1.50244 3.44675 1.18017 4.86472 1.14462 6.59645C1.14345 6.65359 1.14212 6.71244 1.14075 6.77286C1.10064 8.54381 1.02997 11.665 4.05931 12.515C4.05931 12.515 4.04746 14.9701 4.04509 15.1857C4.04509 15.3366 4.06879 15.4396 4.1541 15.4611C4.21571 15.4779 4.30813 15.4444 4.38633 15.3653C4.88633 14.8551 6.49059 12.9006 6.49059 12.9006C8.64225 13.0444 10.3532 12.6132 10.538 12.5533C10.5805 12.5396 10.6418 12.5253 10.718 12.5074Z" fill="#665CAC"/>
<path d="M9.42918 6.44784C9.43451 6.5592 9.34952 6.65384 9.23935 6.65922C9.12918 6.6646 9.03555 6.57869 9.03022 6.46733C8.99723 5.77743 8.68017 5.44646 8.02482 5.41127C7.91467 5.40536 7.83013 5.31031 7.83598 5.19898C7.84183 5.08765 7.93586 5.00219 8.04601 5.0081C8.90842 5.05441 9.38641 5.55338 9.42918 6.44784Z" fill="#665CAC"/>
<path d="M10.4531 6.80936C10.4506 6.92082 10.3592 7.00912 10.2489 7.00659C10.1386 7.00406 10.0513 6.91165 10.0538 6.80019C10.0692 6.11276 9.87112 5.54817 9.45703 5.09218C9.04331 4.63658 8.46814 4.3823 7.71561 4.32829C7.60559 4.3204 7.52273 4.22384 7.53054 4.11263C7.53835 4.00142 7.63388 3.91767 7.7439 3.92556C8.59347 3.98654 9.26466 4.28327 9.7513 4.81916C10.2371 5.3541 10.4709 6.02031 10.4531 6.80936Z" fill="#665CAC"/>
<path d="M11.5033 7.21767C11.5041 7.32916 11.4154 7.42021 11.3051 7.42104C11.1948 7.42188 11.1047 7.33218 11.1039 7.22069C11.0948 5.99222 10.7361 5.0373 10.0291 4.33859C9.31967 3.63971 8.4378 3.28657 7.37813 3.27972C7.26783 3.279 7.17899 3.18804 7.17969 3.07656C7.1804 2.96507 7.27038 2.87527 7.38068 2.87598C8.54193 2.88349 9.52321 3.27644 10.3081 4.04968C11.0958 4.82818 11.4934 5.8867 11.5033 7.21767Z" fill="#665CAC"/>
<path fill-rule="evenodd" clip-rule="evenodd" d="M8.07584 9.16171C8.07584 9.16171 8.35783 9.18566 8.50712 8.99644L8.80096 8.62279C8.94314 8.43597 9.28674 8.3186 9.62323 8.50782C9.81043 8.61561 10.1469 8.82399 10.3555 8.97968C10.5782 9.14495 11.0355 9.53057 11.0355 9.53057C11.2536 9.715 11.3033 9.98806 11.1564 10.2755C11.1564 10.2779 11.154 10.2803 11.154 10.2803C11.0024 10.5509 10.7986 10.8072 10.5403 11.0443C10.5379 11.0467 10.5379 11.0467 10.5355 11.0491C10.3246 11.2264 10.1161 11.3294 9.91233 11.3533C9.88863 11.3581 9.85783 11.3605 9.82228 11.3581C9.73223 11.3581 9.64456 11.3461 9.55688 11.3174L9.54977 11.3078C9.2346 11.2192 8.71091 10.994 7.83651 10.5078C7.26779 10.1917 6.79623 9.8683 6.39812 9.54734C6.18722 9.37968 5.97158 9.18806 5.75121 8.9677C5.7441 8.96052 5.73699 8.95333 5.72988 8.94614C5.72277 8.93896 5.71566 8.93177 5.70855 8.92459C5.70144 8.9174 5.69433 8.91022 5.68723 8.90303C5.68012 8.89584 5.67301 8.88866 5.6659 8.88147C5.44789 8.65872 5.25832 8.44076 5.09244 8.22758C4.77491 7.82519 4.455 7.34615 4.14221 6.77369C3.66117 5.88986 3.43842 5.36052 3.35074 5.04196L3.34126 5.03477C3.31283 4.94615 3.29861 4.85753 3.30098 4.76651C3.29861 4.73058 3.30098 4.69945 3.30572 4.67549C3.32941 4.46951 3.43131 4.25873 3.60666 4.04555C3.60903 4.04316 3.60903 4.04316 3.6114 4.04076C3.846 3.77969 4.09718 3.5737 4.36733 3.42041C4.36969 3.42041 4.37206 3.41801 4.37206 3.41801C4.65642 3.26951 4.92656 3.31981 5.10903 3.54017C5.1114 3.54256 5.49054 4.00244 5.65405 4.22759C5.80808 4.44076 6.01661 4.77849 6.12087 4.96771C6.30808 5.30783 6.19196 5.65513 6.00713 5.79884L5.63746 6.09585C5.45026 6.24914 5.47396 6.53178 5.47396 6.53178C5.47396 6.53178 6.02372 8.63237 8.07584 9.16171Z" fill="#665CAC"/>
</svg>
