<svg width="131" height="30" viewBox="0 0 131 30" fill="none" xmlns="http://www.w3.org/2000/svg">
<path fill-rule="evenodd" clip-rule="evenodd" d="M101.44 16.9957C101.046 20.1849 99.6803 22.9597 97.32 25.32C94.48 28.16 90.92 29.56 86.6 29.56C82.28 29.56 78.68 28.12 75.84 25.28C73.939 23.3791 72.6833 21.2093 72.0606 18.7827C71.4254 21.2275 70.1292 23.3266 68.16 25.08C65.24 27.68 61.52 29 56.92 29H45.12V1H56.92C61.52 1 65.24 2.32 68.16 4.92C70.1269 6.67133 71.4222 8.7675 72.0583 11.2085C72.6802 8.77809 73.9367 6.62329 75.84 4.72C78.68 1.88 82.28 0.440002 86.6 0.440002C90.92 0.440002 94.48 1.88 97.32 4.72C99.6803 7.08034 101.046 9.82749 101.44 13.0074V1H109.96L116.08 10.96L122.24 1H130.72V29H122.48V13.32L118.52 20H113.88L109.76 13.32V29H101.44V16.9957ZM82.16 19.84C83.32 21.08 84.8 21.72 86.6 21.72C88.4 21.72 89.88 21.08 91.04 19.84C92.2 18.56 92.8 16.96 92.8 15C92.8 13.04 92.2 11.44 91.04 10.2C89.88 8.92 88.4 8.28 86.6 8.28C84.8 8.28 83.32 8.92 82.16 10.2C81 11.44 80.4 13.04 80.4 15C80.4 16.96 81 18.56 82.16 19.84ZM53.72 8.4V21.6H56.36C61.04 21.6 63.64 19.28 63.64 15C63.64 10.72 61.04 8.4 56.36 8.4H53.72Z" fill="#3B3B3B"/>
<path fill-rule="evenodd" clip-rule="evenodd" d="M14.92 29H0.119995V1H14.32C16.92 1 19.04 1.6 20.72 2.84C22.4 4.04 23.24 5.8 23.24 8.16C23.24 9.48 22.88 10.64 22.12 11.56C21.36 12.48 20.64 13.12 19.88 13.48C21.08 13.72 22.28 14.52 23.44 15.88C24.6 17.2 25.2 18.88 25.2 20.88C25.2 23.32 24.24 25.28 22.36 26.76C20.48 28.24 18 29 14.92 29ZM8.72 17.44V22.08H13.24C14.8 22.08 15.8 21.2 15.8 19.8C15.8 18.4 14.72 17.44 13.24 17.44H8.72ZM8.72 7.68V11.44H13.08C14.24 11.44 15.12 10.64 15.12 9.64C15.12 8.48 14.24 7.68 13.08 7.68H8.72ZM39.2 29H30.6V16.76L20.4 1H30.12L35 8.88L39.96 1H49.44L39.2 16.56V29Z" fill="white"/>
</svg>
