<svg width="7" height="15" viewBox="0 0 7 15" fill="none" xmlns="http://www.w3.org/2000/svg">
<path fill-rule="evenodd" clip-rule="evenodd" d="M1.86443 2.96626C1.86443 3.33923 1.86443 5.00393 1.86443 5.00393H0.529419V7.49561H1.86443V14.9H4.60683V7.49581H6.4471C6.4471 7.49581 6.61945 6.30107 6.703 4.99475C6.46347 4.99475 4.6172 4.99475 4.6172 4.99475C4.6172 4.99475 4.6172 3.54517 4.6172 3.29109C4.6172 3.03646 4.9162 2.69395 5.21173 2.69395C5.5067 2.69395 6.12927 2.69395 6.70589 2.69395C6.70589 2.3547 6.70589 1.18254 6.70589 0.0999756C5.93612 0.0999756 5.06037 0.0999756 4.67434 0.0999756C1.79664 0.0998035 1.86443 2.59395 1.86443 2.96626Z" fill="#737373"/>
</svg>
