<svg width="17" height="11" viewBox="0 0 17 11" fill="none" xmlns="http://www.w3.org/2000/svg">
<path fill-rule="evenodd" clip-rule="evenodd" d="M6.22254 6.51775C6.03242 6.51775 5.87826 6.36975 5.87826 6.18716V4.97577C5.87826 4.79318 6.03239 4.64518 6.22254 4.64518H10.8615C10.8615 4.64518 10.8589 5.74492 10.8549 5.77746C10.705 8.37291 8.46627 10.4333 5.72586 10.4333C2.87624 10.4333 0.56848 8.20557 0.588385 5.46481C0.608114 2.74448 2.99564 0.514479 5.82811 0.56758C7.15611 0.592481 8.36037 1.10152 9.25809 1.91819C9.40177 2.04889 9.40125 2.26886 9.25715 2.39912L8.33563 3.23195C8.20376 3.35114 7.99966 3.3504 7.86558 3.23353C7.29951 2.74024 6.54866 2.4392 5.72586 2.4392C3.92634 2.4392 2.47029 3.87858 2.5408 5.62132C2.60658 7.24713 4.00757 8.54867 5.70192 8.56068C7.09832 8.57058 8.29109 7.71336 8.73149 6.51775H6.22254ZM15.1128 4.75518H16.3454C16.512 4.75518 16.6471 4.88487 16.6471 5.04488V6.04108C16.6471 6.20109 16.512 6.33078 16.3454 6.33078H15.1128V7.51438C15.1128 7.67439 14.9777 7.80408 14.8111 7.80408H13.7736C13.607 7.80408 13.4719 7.67439 13.4719 7.51438V6.33078H12.2393C12.0727 6.33078 11.9376 6.20109 11.9376 6.04108V5.04488C11.9376 4.88487 12.0727 4.75518 12.2393 4.75518H13.4719V3.57159C13.4719 3.41158 13.607 3.28189 13.7736 3.28189H14.8111C14.9777 3.28189 15.1128 3.41158 15.1128 3.57159V4.75518Z" fill="#737373"/>
</svg>
