<svg width="12" height="17" viewBox="0 0 12 17" fill="none" xmlns="http://www.w3.org/2000/svg">
<path fill-rule="evenodd" clip-rule="evenodd" d="M5.6176 0.0999756C7.80882 0.0999756 9.5908 1.89769 9.5908 4.10825C9.5908 6.31881 7.80882 8.11652 5.6176 8.11652C3.42638 8.11652 1.64439 6.31881 1.64439 4.10825C1.64439 1.89769 3.42638 0.0999756 5.6176 0.0999756ZM5.6176 6.11238C6.71321 6.11238 7.6042 5.21353 7.6042 4.10825C7.6042 3.00297 6.71321 2.10411 5.6176 2.10411C4.52199 2.10411 3.631 3.00297 3.631 4.10825C3.631 5.21353 4.52199 6.11238 5.6176 6.11238ZM10.8861 8.00529C11.2735 8.3971 11.2735 9.0314 10.8851 9.42321C9.64941 10.6698 8.08297 11.3803 6.46786 11.5656L9.29977 14.4225C9.68815 14.8143 9.68815 15.4476 9.29977 15.8395C9.10607 16.0349 8.85179 16.1331 8.5975 16.1331C8.34322 16.1331 8.08893 16.0349 7.89524 15.8395L5.6176 13.5417L3.33996 15.8395C2.95158 16.2313 2.32381 16.2313 1.93543 15.8395C1.54705 15.4476 1.54705 14.8143 1.93543 14.4225L4.76733 11.5656C3.15223 11.3803 1.58579 10.6698 0.350123 9.42321C-0.0382573 9.0304 -0.0382573 8.3971 0.350123 8.00529C0.738504 7.61348 1.36627 7.61348 1.75465 8.00529C3.88528 10.1537 7.3519 10.1537 9.48154 8.00529C9.86992 7.61348 10.4977 7.61348 10.8861 8.00529Z" fill="#737373"/>
</svg>
