<svg width="15" height="11" viewBox="0 0 15 11" fill="none" xmlns="http://www.w3.org/2000/svg">
<path fill-rule="evenodd" clip-rule="evenodd" d="M14.4118 1.73403C13.9117 1.93213 13.375 2.06648 12.8112 2.12646C13.3869 1.81829 13.8276 1.32948 14.0365 0.748813C13.4964 1.0342 12.9004 1.24143 12.2652 1.35377C11.7566 0.868752 11.0332 0.56665 10.2308 0.56665C8.69133 0.56665 7.44314 1.68243 7.44314 3.05779C7.44314 3.25286 7.46776 3.44338 7.51532 3.62556C5.19897 3.52156 3.14499 2.52951 1.77028 1.02206C1.52998 1.38944 1.39328 1.81751 1.39328 2.27447C1.39328 3.13901 1.88576 3.90184 2.63298 4.34813C2.17616 4.33448 1.74651 4.22214 1.37036 4.03541V4.06653C1.37036 5.27339 2.33156 6.28062 3.60605 6.50986C3.37254 6.56603 3.12631 6.59715 2.87158 6.59715C2.69158 6.59715 2.51751 6.58122 2.34683 6.55085C2.70175 7.54139 3.73088 8.2617 4.9502 8.28145C3.99665 8.9494 2.79431 9.34638 1.4884 9.34638C1.26339 9.34638 1.04176 9.33423 0.823547 9.31222C2.0573 10.0204 3.52202 10.4333 5.09625 10.4333C10.224 10.4333 13.0269 6.63663 13.0269 3.34396L13.0176 3.02137C13.5652 2.67219 14.039 2.23348 14.4118 1.73403Z" fill="#737373"/>
</svg>
