<svg width="16" height="9" viewBox="0 0 16 9" fill="none" xmlns="http://www.w3.org/2000/svg">
<path fill-rule="evenodd" clip-rule="evenodd" d="M13.346 5.50518C13.8377 5.92867 14.3567 6.32712 14.7977 6.79331C14.9925 7.00048 15.177 7.21426 15.3181 7.45469C15.518 7.79646 15.3369 8.17256 14.9895 8.19297L12.83 8.19211C12.273 8.23288 11.8287 8.03508 11.4551 7.69915C11.1561 7.4305 10.8792 7.14458 10.5917 6.86686C10.4738 6.75335 10.3505 6.64655 10.2031 6.56212C9.9083 6.39332 9.65241 6.44501 9.48394 6.71623C9.31236 6.9921 9.27344 7.29757 9.25659 7.60502C9.23346 8.0536 9.07975 8.17153 8.56894 8.19207C7.47729 8.23748 6.44126 8.09179 5.47882 7.606C4.6303 7.17775 3.97231 6.57317 3.3996 5.88872C2.28452 4.55595 1.4306 3.09146 0.663121 1.58594C0.490368 1.24675 0.616706 1.06467 1.04097 1.05822C1.74547 1.04615 2.44987 1.04701 3.1552 1.05736C3.44153 1.06106 3.63109 1.20593 3.74165 1.44455C4.12281 2.27129 4.58919 3.05786 5.17462 3.78695C5.33052 3.98106 5.48949 4.17517 5.71586 4.31179C5.9663 4.46307 6.15697 4.41293 6.27479 4.16683C6.34955 4.01079 6.38228 3.84272 6.39913 3.67559C6.45494 3.10061 6.4623 2.52662 6.3644 1.95366C6.3043 1.59608 6.07598 1.36459 5.67149 1.29693C5.46509 1.26243 5.49582 1.19467 5.59576 1.09075C5.76934 0.911502 5.93259 0.799927 6.25803 0.799927H8.69864C9.08286 0.866821 9.16819 1.01908 9.22079 1.36013L9.22289 3.75159C9.2187 3.88362 9.29765 4.2754 9.56722 4.36279C9.78298 4.425 9.9252 4.27274 10.0547 4.15205C10.639 3.60496 11.0561 2.9584 11.4286 2.28891C11.594 1.99452 11.7362 1.68879 11.8739 1.38333C11.976 1.15665 12.1362 1.04512 12.4257 1.05006L14.7746 1.05191C14.8442 1.05191 14.9147 1.05281 14.9822 1.06299C15.378 1.1225 15.4865 1.2727 15.3642 1.61365C15.1716 2.14859 14.7968 2.59438 14.4304 3.04223C14.0386 3.52036 13.6197 3.98213 13.2312 4.46311C12.8743 4.90232 12.9027 5.12371 13.346 5.50518Z" fill="#737373"/>
</svg>
