<svg width="43" height="53" viewBox="0 0 43 53" fill="none" xmlns="http://www.w3.org/2000/svg">
<path fill-rule="evenodd" clip-rule="evenodd" d="M0.5 8.20711V46.5H35.5V0.5H8.20711L0.5 8.20711Z" fill="white" stroke="#3B3B3B"/>
<path fill-rule="evenodd" clip-rule="evenodd" d="M32.4785 34.5C32.3202 36.281 31.2896 37.3196 29.5 37.4786V45.5777L36 52.2817L42.5 45.5777V37.4786C40.7104 37.3196 39.6798 36.281 39.5215 34.5H32.4785Z" fill="#FFE544" stroke="#3B3B3B"/>
<path d="M30 14H6V15H30V14Z" fill="#3B3B3B"/>
<path d="M30 19H6V20H30V19Z" fill="#3B3B3B"/>
<path d="M30 24H6V25H30V24Z" fill="#3B3B3B"/>
<path d="M30 29H6V30H30V29Z" fill="#3B3B3B"/>
<path d="M26 34H6V35H26V34Z" fill="#3B3B3B"/>
<path d="M33 41.9685L35.2282 44.1063L39.2385 40" stroke="#3B3B3B"/>
<path fill-rule="evenodd" clip-rule="evenodd" d="M8 0V8H0L8 0Z" fill="#3B3B3B"/>
</svg>
