<svg width="56" height="50" viewBox="0 0 56 50" fill="none" xmlns="http://www.w3.org/2000/svg">
<path fill-rule="evenodd" clip-rule="evenodd" d="M25.5858 6.02942H43.9706V24.4142L19.2218 49.1629L0.837036 30.7782L25.5858 6.02942ZM31.9497 18.0502C33.1213 19.2218 35.0208 19.2218 36.1924 18.0502C37.3639 16.8787 37.3639 14.9792 36.1924 13.8076C35.0208 12.636 33.1213 12.636 31.9497 13.8076C30.7782 14.9792 30.7782 16.8787 31.9497 18.0502Z" fill="#FFE544"/>
<path fill-rule="evenodd" clip-rule="evenodd" d="M26.2929 9.56494H40.4351V23.7071L19.2218 44.9203L5.07971 30.7781L26.2929 9.56494ZM31.9498 18.0502C33.1213 19.2218 35.0208 19.2218 36.1924 18.0502C37.364 16.8787 37.364 14.9792 36.1924 13.8076C35.0208 12.636 33.1213 12.636 31.9498 13.8076C30.7782 14.9792 30.7782 16.8787 31.9498 18.0502Z" fill="white"/>
<path d="M36.068 16.0391C35.7703 16.1655 35.4676 16.3026 35.1581 16.4509C34.9091 16.5703 34.6104 16.4651 34.4911 16.2161C34.3718 15.9671 34.4769 15.6685 34.7259 15.5491C35.114 15.3632 35.4921 15.1938 35.8634 15.0403C35.7693 14.8506 35.6433 14.6727 35.4853 14.5147C34.7042 13.7337 33.4379 13.7337 32.6568 14.5147C31.8758 15.2958 31.8758 16.5621 32.6568 17.3432C33.4379 18.1242 34.7042 18.1242 35.4853 17.3432C35.8478 16.9807 36.042 16.5136 36.068 16.0391ZM36.8001 14.6811C38.8088 13.9739 40.6886 13.7268 42.9706 13.7814V7.02946H26L2.25125 30.7782L19.2218 47.7488L42.9706 24V14.7821C40.769 14.7283 38.9772 14.9674 37.0583 15.6516C37.1374 16.509 36.8488 17.3939 36.1924 18.0503C35.0208 19.2218 33.1213 19.2218 31.9497 18.0503C30.7782 16.8787 30.7782 14.9792 31.9497 13.8076C33.1213 12.6361 35.0208 12.6361 36.1924 13.8076C36.4529 14.0681 36.6555 14.3647 36.8001 14.6811ZM13.8109 33.1023L12.8912 32.1825L13.1232 30.6992L13.9891 29.8333L20.0299 35.8741L19.164 36.74L14.0388 31.6148L13.8109 33.1023ZM21.3101 32.862L22.1761 31.996L23.042 32.862L22.1761 33.7279L21.3101 32.862ZM24.5211 31.3828C24.5184 31.3856 24.4914 31.3117 24.4403 31.1612C24.3892 31.0106 24.3236 30.8152 24.2435 30.5749C24.1634 30.3346 24.075 30.0667 23.9784 29.7711C23.8817 29.4756 23.7864 29.1842 23.6925 28.8969C23.5986 28.6096 23.5136 28.3438 23.4377 28.0993C23.3617 27.8549 23.3044 27.6608 23.2657 27.5172C23.2326 27.6443 23.1704 27.763 23.0793 27.8735C22.9881 27.984 22.8735 28.1028 22.7354 28.2298C22.5476 28.4066 22.3549 28.533 22.1574 28.609C21.9599 28.6849 21.7659 28.727 21.5753 28.7353C21.3847 28.7436 21.2003 28.725 21.0222 28.6794C20.844 28.6338 20.6818 28.5779 20.5354 28.5116C20.389 28.4453 20.2605 28.3749 20.15 28.3003C20.0396 28.2257 19.9581 28.1622 19.9056 28.1097C19.889 28.0931 19.8579 28.0634 19.8124 28.0206C19.7668 27.9778 19.7171 27.9295 19.6632 27.8756C19.6094 27.8217 19.5555 27.7665 19.5016 27.7099C19.4478 27.6533 19.4043 27.6028 19.3711 27.5587C19.3545 27.5366 19.3145 27.4785 19.251 27.3846C19.1874 27.2907 19.1211 27.1678 19.0521 27.0159C18.983 26.864 18.923 26.6879 18.8719 26.4876C18.8208 26.2874 18.8 26.0719 18.8097 25.8413C18.8194 25.6107 18.8719 25.3676 18.9672 25.1121C19.0625 24.8566 19.2192 24.5976 19.4374 24.3352C19.6667 24.0618 19.9035 23.8553 20.148 23.7158C20.3924 23.5763 20.6334 23.4873 20.871 23.4486C21.1085 23.4099 21.3391 23.4113 21.5629 23.4527C21.7866 23.4942 21.9924 23.5577 22.1802 23.6433C22.368 23.7289 22.5345 23.8277 22.6795 23.9396C22.8245 24.0514 22.937 24.1585 23.0171 24.2607C23.1359 24.4126 23.2388 24.5514 23.3258 24.6771C23.4128 24.8027 23.4915 24.927 23.562 25.0499C23.6324 25.1729 23.698 25.2978 23.7588 25.4249C23.8195 25.552 23.8831 25.6928 23.9494 25.8475C23.9687 25.8889 24.0053 25.9849 24.0592 26.1355C24.113 26.286 24.1772 26.4717 24.2518 26.6927C24.3264 26.9137 24.4106 27.1581 24.5046 27.4261C24.5985 27.694 24.691 27.9647 24.7821 28.2381C25.0004 28.8817 25.2434 29.5999 25.5113 30.3926L24.5211 31.3828ZM20.3323 26.8212C20.4401 26.9289 20.5644 27.0421 20.7052 27.1609C20.8461 27.2797 21.0008 27.3694 21.1693 27.4302C21.3378 27.491 21.5208 27.5041 21.7182 27.4696C21.9157 27.435 22.125 27.3183 22.3459 27.1195C22.4564 27.02 22.5386 26.9116 22.5925 26.7942C22.6463 26.6768 22.6802 26.5588 22.694 26.44C22.7078 26.3212 22.7057 26.2045 22.6878 26.0899C22.6698 25.9753 22.6443 25.8696 22.6111 25.7729C22.578 25.6763 22.5407 25.5934 22.4992 25.5243C22.4578 25.4553 22.4205 25.4042 22.3874 25.371C22.3156 25.3047 22.2361 25.2295 22.1491 25.1452C22.0621 25.061 21.9668 24.9823 21.8633 24.9091C21.7597 24.8359 21.6492 24.7765 21.5318 24.7309C21.4144 24.6853 21.2922 24.6653 21.1651 24.6708C21.0381 24.6764 20.9055 24.7136 20.7674 24.7827C20.6293 24.8518 20.487 24.9678 20.3406 25.1307C20.1777 25.3103 20.0803 25.4933 20.0485 25.6797C20.0168 25.8662 20.0161 26.0381 20.0465 26.1955C20.0768 26.353 20.1238 26.4883 20.1873 26.6016C20.2509 26.7148 20.2992 26.788 20.3323 26.8212ZM28.5939 27.3101C28.5911 27.3128 28.5642 27.2389 28.5131 27.0884C28.462 26.9379 28.3964 26.7424 28.3163 26.5021C28.2362 26.2618 28.1478 25.9939 28.0511 25.6984C27.9545 25.4028 27.8592 25.1114 27.7653 24.8241C27.6713 24.5369 27.5864 24.271 27.5104 24.0266C27.4345 23.7821 27.3772 23.5881 27.3385 23.4444C27.3054 23.5715 27.2432 23.6903 27.1521 23.8008C27.0609 23.9112 26.9463 24.03 26.8082 24.1571C26.6203 24.3339 26.4277 24.4602 26.2302 24.5362C26.0327 24.6121 25.8387 24.6543 25.6481 24.6625C25.4575 24.6708 25.2731 24.6522 25.095 24.6066C24.9168 24.561 24.7545 24.5051 24.6081 24.4388C24.4617 24.3725 24.3333 24.3021 24.2228 24.2275C24.1123 24.1529 24.0308 24.0894 23.9784 24.0369C23.9618 24.0204 23.9307 23.9907 23.8851 23.9478C23.8396 23.905 23.7898 23.8567 23.736 23.8028C23.6821 23.749 23.6283 23.6937 23.5744 23.6371C23.5205 23.5805 23.477 23.5301 23.4439 23.4859C23.4273 23.4638 23.3873 23.4058 23.3237 23.3119C23.2602 23.218 23.1939 23.095 23.1249 22.9431C23.0558 22.7912 22.9957 22.6151 22.9446 22.4149C22.8935 22.2146 22.8728 21.9992 22.8825 21.7685C22.8922 21.5379 22.9446 21.2948 23.0399 21.0393C23.1352 20.7838 23.292 20.5249 23.5102 20.2625C23.7394 19.989 23.9763 19.7825 24.2207 19.6431C24.4652 19.5036 24.7062 19.4145 24.9437 19.3758C25.1813 19.3372 25.4119 19.3385 25.6356 19.38C25.8594 19.4214 26.0652 19.4849 26.253 19.5706C26.4408 19.6562 26.6072 19.7549 26.7522 19.8668C26.8973 19.9787 27.0098 20.0857 27.0899 20.1879C27.2087 20.3398 27.3116 20.4786 27.3986 20.6043C27.4856 20.73 27.5643 20.8543 27.6347 20.9772C27.7052 21.1001 27.7708 21.2251 27.8315 21.3521C27.8923 21.4792 27.9558 21.6201 28.0221 21.7747C28.0415 21.8162 28.0781 21.9122 28.1319 22.0627C28.1858 22.2132 28.25 22.399 28.3246 22.62C28.3992 22.8409 28.4834 23.0854 28.5773 23.3533C28.6712 23.6212 28.7638 23.8919 28.8549 24.1654C29.0731 24.8089 29.3162 25.5271 29.5841 26.3198L28.5939 27.3101ZM24.4051 22.7484C24.5128 22.8561 24.6371 22.9694 24.778 23.0881C24.9189 23.2069 25.0735 23.2967 25.242 23.3574C25.4105 23.4182 25.5935 23.4313 25.791 23.3968C25.9885 23.3623 26.1977 23.2456 26.4187 23.0467C26.5292 22.9473 26.6114 22.8389 26.6652 22.7215C26.7191 22.6041 26.7529 22.486 26.7667 22.3672C26.7806 22.2484 26.7785 22.1317 26.7605 22.0171C26.7426 21.9025 26.717 21.7968 26.6839 21.7002C26.6507 21.6035 26.6134 21.5206 26.572 21.4516C26.5306 21.3825 26.4933 21.3314 26.4601 21.2983C26.3883 21.232 26.3089 21.1567 26.2219 21.0725C26.1349 20.9882 26.0396 20.9095 25.936 20.8363C25.8324 20.7631 25.722 20.7037 25.6046 20.6581C25.4872 20.6126 25.365 20.5925 25.2379 20.5981C25.1108 20.6036 24.9783 20.6409 24.8402 20.7099C24.702 20.779 24.5598 20.895 24.4134 21.058C24.2504 21.2375 24.1531 21.4205 24.1213 21.6069C24.0895 21.7934 24.0888 21.9653 24.1192 22.1228C24.1496 22.2802 24.1966 22.4156 24.2601 22.5288C24.3236 22.642 24.372 22.7152 24.4051 22.7484ZM43.9706 13.8226C44.6566 13.8617 45.3814 13.9235 46.1572 14.0043C50.5059 14.4573 51.8196 14.2878 53.4114 12.53C55.9462 9.73077 55.3508 5.92806 51.481 0.992107C51.3106 0.77479 51.3487 0.460503 51.566 0.290128C51.7833 0.119752 52.0976 0.157806 52.268 0.375123C56.4035 5.6501 57.0798 9.96876 54.1526 13.2013C52.2675 15.2831 50.7101 15.4839 46.0536 14.9989C45.3133 14.9218 44.6228 14.8625 43.9706 14.8243V24.4142L19.2218 49.163L0.837036 30.7782L25.5858 6.02946H43.9706V13.8226Z" fill="#3B3B3B"/>
</svg>
