<svg width="43" height="42" viewBox="0 0 43 42" fill="none" xmlns="http://www.w3.org/2000/svg">
<path d="M40.5 15.5H2.5V41.5H40.5V15.5Z" fill="white" stroke="#3B3B3B"/>
<path d="M42.5 38.5H0.5V41.5H42.5V38.5Z" fill="white" stroke="#3B3B3B"/>
<path d="M3.5 19C5.15685 19 6.5 17.6569 6.5 16C6.5 14.3431 5.15685 13 3.5 13C1.84315 13 0.5 14.3431 0.5 16C0.5 17.6569 1.84315 19 3.5 19Z" fill="#FFE544" stroke="#3B3B3B"/>
<path d="M6.5 0.5H0.5V15.5H6.5V0.5Z" fill="#FFE544" stroke="#3B3B3B"/>
<path d="M9.5 19C11.1569 19 12.5 17.6569 12.5 16C12.5 14.3431 11.1569 13 9.5 13C7.84315 13 6.5 14.3431 6.5 16C6.5 17.6569 7.84315 19 9.5 19Z" fill="white" stroke="#3B3B3B"/>
<path d="M12.5 0.5H6.5V15.5H12.5V0.5Z" fill="white" stroke="#3B3B3B"/>
<path d="M15.5 19C17.1569 19 18.5 17.6569 18.5 16C18.5 14.3431 17.1569 13 15.5 13C13.8431 13 12.5 14.3431 12.5 16C12.5 17.6569 13.8431 19 15.5 19Z" fill="#FFE544" stroke="#3B3B3B"/>
<path d="M18.5 0.5H12.5V15.5H18.5V0.5Z" fill="#FFE544" stroke="#3B3B3B"/>
<path d="M21.5 19C23.1569 19 24.5 17.6569 24.5 16C24.5 14.3431 23.1569 13 21.5 13C19.8431 13 18.5 14.3431 18.5 16C18.5 17.6569 19.8431 19 21.5 19Z" fill="white" stroke="#3B3B3B"/>
<path d="M24.5 0.5H18.5V15.5H24.5V0.5Z" fill="white" stroke="#3B3B3B"/>
<path d="M27.5 19C29.1569 19 30.5 17.6569 30.5 16C30.5 14.3431 29.1569 13 27.5 13C25.8431 13 24.5 14.3431 24.5 16C24.5 17.6569 25.8431 19 27.5 19Z" fill="#FFE544" stroke="#3B3B3B"/>
<path d="M30.5 0.5H24.5V15.5H30.5V0.5Z" fill="#FFE544" stroke="#3B3B3B"/>
<path d="M33.5 19C35.1569 19 36.5 17.6569 36.5 16C36.5 14.3431 35.1569 13 33.5 13C31.8431 13 30.5 14.3431 30.5 16C30.5 17.6569 31.8431 19 33.5 19Z" fill="white" stroke="#3B3B3B"/>
<path d="M36.5 0.5H30.5V15.5H36.5V0.5Z" fill="white" stroke="#3B3B3B"/>
<path d="M39.5 19C41.1569 19 42.5 17.6569 42.5 16C42.5 14.3431 41.1569 13 39.5 13C37.8431 13 36.5 14.3431 36.5 16C36.5 17.6569 37.8431 19 39.5 19Z" fill="#FFE544" stroke="#3B3B3B"/>
<path d="M42.5 0.5H36.5V15.5H42.5V0.5Z" fill="#FFE544" stroke="#3B3B3B"/>
<path d="M24.5 23.5H6.5V33.5H24.5V23.5Z" fill="#F8E71C" stroke="#3B3B3B"/>
<path d="M36.5 23.5H29.5V38.5H36.5V23.5Z" fill="white" stroke="#3B3B3B"/>
<path d="M32 30H31V34H32V30Z" fill="#3B3B3B"/>
</svg>
