<svg width="54" height="31" viewBox="0 0 54 31" fill="none" xmlns="http://www.w3.org/2000/svg">
<path d="M42.5 0.5H6.5V27.5H42.5V0.5Z" fill="white" stroke="#3B3B3B"/>
<path d="M53.5 19.5H42.5V27.5H53.5V19.5Z" fill="#FFE544" stroke="#3B3B3B"/>
<path d="M52.5 10.5H42.5V12.5H52.5V10.5Z" fill="#FFE544" stroke="#3B3B3B"/>
<path d="M13.752 8.88086H18.2979V9.90137H14.8311V12.001H17.79V12.958H14.8311V16H13.752V8.88086ZM20.2021 12.001H21.833C22.2367 11.9945 22.5394 11.8773 22.7412 11.6494C22.9398 11.4378 23.0391 11.1774 23.0391 10.8682C23.0326 10.4971 22.9137 10.2285 22.6826 10.0625C22.5003 9.91602 22.2367 9.84277 21.8916 9.84277H20.2021V12.001ZM19.123 8.88086H21.9014C22.4938 8.88086 22.9772 9.03711 23.3516 9.34961C23.804 9.70443 24.04 10.2106 24.0596 10.8682C24.0465 11.835 23.5876 12.4925 22.6826 12.8408L24.333 16H23.0488L21.5791 12.958H20.2021V16H19.123V8.88086ZM25.2266 8.88086H29.7725V9.90137H26.3057V11.9326H29.2646V12.8896H26.3057V14.9795H29.7725V16H25.2266V8.88086ZM30.793 8.88086H35.3389V9.90137H31.8721V11.9326H34.8311V12.8896H31.8721V14.9795H35.3389V16H30.793V8.88086Z" fill="#313131"/>
<path d="M15 19H3V20H15V19Z" fill="#3B3B3B"/>
<path d="M10 23H0V24H10V23Z" fill="#3B3B3B"/>
<path d="M38 23H20V24H38V23Z" fill="#3B3B3B"/>
<path d="M15 30.5C16.933 30.5 18.5 28.933 18.5 27C18.5 25.067 16.933 23.5 15 23.5C13.067 23.5 11.5 25.067 11.5 27C11.5 28.933 13.067 30.5 15 30.5Z" fill="white" stroke="#3B3B3B"/>
<path d="M15 29C16.1046 29 17 28.1046 17 27C17 25.8954 16.1046 25 15 25C13.8954 25 13 25.8954 13 27C13 28.1046 13.8954 29 15 29Z" fill="#3B3B3B"/>
<path d="M48 30.5C49.933 30.5 51.5 28.933 51.5 27C51.5 25.067 49.933 23.5 48 23.5C46.067 23.5 44.5 25.067 44.5 27C44.5 28.933 46.067 30.5 48 30.5Z" fill="white" stroke="#3B3B3B"/>
<path d="M48 29C49.1046 29 50 28.1046 50 27C50 25.8954 49.1046 25 48 25C46.8954 25 46 25.8954 46 27C46 28.1046 46.8954 29 48 29Z" fill="#3B3B3B"/>
<path d="M53 19L52 13" stroke="#3B3B3B" stroke-linecap="square"/>
</svg>
