<svg width="41" height="42" viewBox="0 0 41 42" fill="none" xmlns="http://www.w3.org/2000/svg">
<g clip-path="url(#clip0)">
<path fill-rule="evenodd" clip-rule="evenodd" d="M40.2424 7.62147L34.2165 13.6474L29.4435 12.0564L27.8525 7.28342L33.8784 1.2575C31.0596 0.605701 28.0561 1.42298 25.9497 3.52937C23.382 6.09711 22.7481 9.98104 24.2881 13.2048L24.4405 13.5238L9.62183 28.3425L9.34319 28.2681C7.45835 27.7648 5.4341 28.2876 4.02938 29.6923C1.8815 31.8402 1.8815 35.3226 4.02938 37.4705C6.17726 39.6184 9.65967 39.6184 11.8076 37.4705C13.2123 36.0658 13.7351 34.0415 13.2318 32.1567L13.1574 31.8781L27.9761 17.0594L28.2951 17.2118C31.5188 18.7518 35.4028 18.1179 37.9705 15.5502C40.0769 13.4438 40.8942 10.4403 40.2424 7.62147ZM6.1507 35.3492C5.17439 34.3729 5.17439 32.79 6.1507 31.8136C7.12701 30.8373 8.70992 30.8373 9.68623 31.8136C10.6625 32.79 10.6625 34.3729 9.68623 35.3492C8.70993 36.3255 7.12701 36.3255 6.1507 35.3492Z" fill="white" stroke="#3B3B3B"/>
<path d="M6.50428 6.71144L2.96875 3.1759L0.84743 5.29722L4.38296 8.83276L6.50428 6.71144Z" fill="#3B3B3B"/>
<path d="M27.7175 24.3891L26.3033 22.9749L20.6464 28.6317L22.0606 30.0459L27.7175 24.3891Z" fill="#FFE544" stroke="#3B3B3B"/>
<path d="M39.0312 37.117L27.0104 25.0962L22.7677 29.3388L34.7886 41.3596L39.0312 37.117Z" fill="#FFE544" stroke="#3B3B3B"/>
<path d="M23.4748 25.0961L5.79718 7.41846L5.09007 8.12556L22.7677 25.8032L23.4748 25.0961Z" fill="#3B3B3B"/>
</g>
<defs>
<clipPath id="clip0">
<rect width="41" height="42" fill="white"/>
</clipPath>
</defs>
</svg>
