<svg width="51" height="47" viewBox="0 0 51 47" fill="none" xmlns="http://www.w3.org/2000/svg">
<path d="M50.5 3.5H4.5V37.5H50.5V3.5Z" fill="white" stroke="#3B3B3B"/>
<path d="M51 2H4V5H51V2Z" fill="#3B3B3B"/>
<path d="M18.5 10.5H10.5V18.5H18.5V10.5Z" fill="white" stroke="#3B3B3B"/>
<path d="M31.5 10.5H23.5V18.5H31.5V10.5Z" fill="white" stroke="#3B3B3B"/>
<path d="M44.5 10.5H36.5V18.5H44.5V10.5Z" fill="white" stroke="#3B3B3B"/>
<path d="M18.5 23.5H10.5V31.5H18.5V23.5Z" fill="white" stroke="#3B3B3B"/>
<path d="M31.5 23.5H23.5V31.5H31.5V23.5Z" fill="white" stroke="#3B3B3B"/>
<path d="M44.5 23.5H36.5V31.5H44.5V23.5Z" fill="white" stroke="#3B3B3B"/>
<path d="M17 0H15V5H17V0Z" fill="#3B3B3B"/>
<path d="M40 0H38V5H40V0Z" fill="#3B3B3B"/>
<path d="M10 46.5C15.2467 46.5 19.5 42.2467 19.5 37C19.5 31.7533 15.2467 27.5 10 27.5C4.75329 27.5 0.5 31.7533 0.5 37C0.5 42.2467 4.75329 46.5 10 46.5Z" fill="#FFE544" stroke="#3B3B3B"/>
<path d="M7.59375 38.7168C7.82617 38.9902 8.09733 39.2135 8.40723 39.3867C8.70345 39.5736 9.06576 39.6921 9.49414 39.7422V36.6182C7.83529 36.1989 7.02409 35.2646 7.06055 33.8154C7.08789 32.1383 7.89909 31.1836 9.49414 30.9512V29.9668H10.2119V30.9512C11.0869 30.9603 11.8753 31.2725 12.5771 31.8877L11.7637 32.9473C11.3079 32.5553 10.7907 32.3366 10.2119 32.291V35.2715C11.9391 35.6862 12.7913 36.6478 12.7686 38.1562C12.7594 38.9401 12.527 39.5895 12.0713 40.1045C11.6156 40.6377 10.9958 40.9635 10.2119 41.082V42.5928H9.49414V41.082C8.95182 41.0729 8.43457 40.9476 7.94238 40.7061C7.44564 40.4554 7.0013 40.1387 6.60938 39.7559L7.59375 38.7168ZM9.49414 32.291C9.22526 32.3275 8.99284 32.4642 8.79688 32.7012C8.71029 32.8197 8.63965 32.9678 8.58496 33.1455C8.52116 33.3232 8.48926 33.5374 8.48926 33.7881C8.48926 34.1071 8.56445 34.3737 8.71484 34.5879C8.86068 34.8112 9.12044 34.9844 9.49414 35.1074V32.291ZM10.2119 39.7422C10.6403 39.6283 10.9388 39.4323 11.1074 39.1543C11.2669 38.8809 11.3467 38.5436 11.3467 38.1426C11.3467 37.819 11.2715 37.5342 11.1211 37.2881C10.9616 37.0465 10.6585 36.8802 10.2119 36.7891V39.7422Z" fill="#313131"/>
</svg>
